<?xml version="1.0" encoding="UTF-8"?>
<svg id="OBJECTS" xmlns="http://www.w3.org/2000/svg" viewBox="0 0 160 160">
  <defs>
    <style>
      .cls-1 {
        stroke-width: .2px;
      }

      .cls-1, .cls-2 {
        fill: none;
        stroke: #000;
        stroke-linecap: round;
        stroke-linejoin: round;
      }

      .cls-2 {
        stroke-width: .5px;
      }
    </style>
  </defs>
  <polygon class="cls-1" points="50.35 96.38 49.67 95.16 50.6 95.12 50.35 96.38"/>
  <polygon class="cls-1" points="50.6 95.12 49.67 95.16 43.92 83.45 52.67 84.64 50.6 95.12"/>
  <polygon class="cls-2" points="76.99 87.95 75.88 93.96 74.81 99.71 91.25 101.96 109.75 92.4 76.99 87.95"/>
  <path class="cls-2" d="M17.7,82.33l29.78,72.84L76.58,4.85,17.7,82.33ZM30.97,80.84l30.03-38.35-5.21,26.33-1.15,5.84-1.71,8.67-.26,1.32-2.07,10.48-.25,1.25-.02.13-1.32,6.67-2.4,12.13-15.64-34.47Z"/>
  <polygon class="cls-2" points="50.26 96.36 49.67 95.16 43.92 83.45 30.97 80.84 46.61 115.31 49.01 103.17 50.33 96.5 50.26 96.36"/>
  <path class="cls-2" d="M76.58,4.85l-29.11,150.32,96.75-55.63L76.58,4.85ZM71.28,118.69l1.32-7.11,2.21-11.87,1.07-5.75,1.12-6.01.92-4.97.94-5.04,3.92-21.13.37-1.98,1.7-9.14,35.12,47.25-48.68,25.76Z"/>
  <polygon class="cls-2" points="84.84 45.68 83.14 54.82 82.77 56.8 101.07 80.94 78.85 77.93 77.92 82.98 76.99 87.95 109.75 92.4 119.96 92.93 84.84 45.68"/>
  <polygon class="cls-2" points="109.75 92.4 91.25 101.96 72.6 111.59 71.28 118.69 119.96 92.93 109.75 92.4"/>
  <polygon class="cls-2" points="50.35 96.38 49.67 95.16 50.6 95.12 50.35 96.38"/>
  <polygon class="cls-2" points="50.6 95.12 49.67 95.16 43.92 83.45 52.67 84.64 50.6 95.12"/>
  <polygon class="cls-2" points="61.01 42.49 30.97 80.84 43.92 83.45 52.67 84.64 52.93 83.33 54.65 74.65 51.42 74.22 55.8 68.82 61.01 42.49"/>
</svg>